<?xml version="1.0" encoding="utf-8"?>
<!-- Generator: Adobe Illustrator 23.0.2, SVG Export Plug-In . SVG Version: 6.00 Build 0)  -->
<svg version="1.1" id="Layer_1" xmlns="http://www.w3.org/2000/svg" xmlns:xlink="http://www.w3.org/1999/xlink" x="0px" y="0px"
	 viewBox="0 0 10 8.4" style="enable-background:new 0 0 10 8.4;" xml:space="preserve">
<polygon points="1.34,1.38 3.01,2.28 2.79,0 4.35,1.79 4.82,0.04 5.61,1.79 6.75,0.3 6.56,2.04 7.9,1.16 7.48,2.57 9.55,2.48 
	8,3.51 10,4.07 8.07,4.5 9.69,5.68 7.58,5.48 8.33,6.87 6.88,6.57 7.08,8.03 5.65,6.82 4.82,8.4 4.38,6.75 3.25,8.14 3.19,6.64 
	1.59,7.29 2.28,5.87 0.45,5.96 1.85,4.71 0,4.38 1.61,3.73 0.31,2.77 2.31,2.88 "/>
</svg>
